<?xml version="1.0" standalone="no"?><!DOCTYPE svg PUBLIC "-//W3C//DTD SVG 1.1//EN" "http://www.w3.org/Graphics/SVG/1.1/DTD/svg11.dtd"><svg class="icon" width="200px" height="200.00px" viewBox="0 0 1024 1024" version="1.1" xmlns="http://www.w3.org/2000/svg"><path d="M 470.132 62 c 27.7725 0 55.5477 0 83.271 0 c 1.5126 0.878905 4.44199 0.195117 6.58915 0.634569 c 4.34531 0.195117 8.6871 0.439452 13.0834 0.733007 c 1.60752 0 3.17021 0.0500977 4.83134 0.195996 c 1.75693 0.195117 3.51474 0.391112 5.32001 0.68203 c 3.85576 0.58623 7.76073 0.293554 11.2245 0.927244 c 1.75869 0 3.51738 0.145898 5.32353 0.195117 c 4.97548 0.879783 10.3966 0.780468 15.6674 1.66025 c 11.2772 1.5126 22.6485 3.02607 33.9257 4.53954 c 10.0529 2.09795 20.3528 3.07529 30.3583 5.31913 c 21.4769 4.783 43.0532 9.17665 62.6747 15.8159 c 5.27167 1.85361 10.1021 3.02519 15.3263 4.68456 c 15.5698 5.02821 31.0447 11.4231 45.0008 18.5009 c 8.59129 4.34355 17.2318 8.20018 24.9442 13.3251 c 5.12226 3.46552 10.3966 6.54081 15.5215 9.95887 c 2.5875 1.80527 5.0748 4.19677 7.61483 6.29559 c 13.1783 10.3473 25.6245 23.0879 32.6531 39.5859 c 3.36796 8.20018 7.61571 20.2069 5.37011 32.2145 c -0.147656 1.46426 -0.244336 2.88017 -0.391991 4.29433 c -1.36933 5.42021 -2.54003 10.3008 -4.49032 14.8385 c -5.61269 13.9104 -17.9121 28.2612 -28.8975 37.0968 c -1.56181 1.31836 -3.02431 2.68418 -4.587 4.10185 c -1.31836 0.926365 -2.73339 1.85537 -4.00429 2.83007 c -5.56347 4.19765 -11.4205 8.25028 -17.3759 12.0568 c -5.85702 3.85576 -12.201 6.97938 -18.646 10.2006 c -8.34784 4.10185 -17.0842 8.68797 -26.0648 12.302 c -8.10174 3.22031 -16.2035 6.00292 -24.7438 9.02899 c -12.6905 4.6371 -26.4093 8.3452 -39.8785 12.3486 c -6.10136 1.75781 -12.4963 2.63408 -18.45 4.53866 c -1.95293 0.341894 -3.90585 0.635448 -5.85702 1.07578 c -7.41971 1.75781 -15.8176 3.02519 -23.4791 5.07655 c -9.27684 1.51347 -18.5009 3.07617 -27.7743 4.53866 c -3.12363 0.391112 -6.19804 0.733007 -9.27332 1.0749 c -7.71239 1.70859 -16.5006 1.75781 -24.4063 3.22206 c -2.19638 0.146777 -4.39101 0.292675 -6.58739 0.488671 c -4.73642 0.731249 -10.1083 0.731249 -14.7937 1.56181 c -1.75605 0.0966797 -3.41542 0.0966797 -5.17235 0.145898 c -4.05175 0.684667 -9.566 1.12324 -13.8146 1.02656 c -1.46513 0.0966797 -2.88017 0.245215 -4.34355 0.487792 c -3.71074 0.0975586 -7.41796 0.245215 -11.1287 0.537011 c -4.54042 0.146777 -9.02811 0.292675 -13.5694 0.53789 c -9.762 0.0492188 -19.6233 0.145898 -29.3862 0.244336 c -7.3204 0 -14.5933 -0.244336 -21.5226 -0.244336 c -6.29735 0 -13.0333 0.291796 -18.7435 -0.53789 c -4.44111 -0.291796 -8.88397 -0.439452 -13.2759 -0.537011 c -13.2302 -1.21992 -27.8718 -1.21992 -40.7566 -3.41718 c -3.71161 -0.292675 -7.32391 -0.58623 -11.0338 -0.927244 c -12.0058 -2.14716 -24.7948 -2.68418 -36.1687 -5.32089 c -2.87929 -0.290917 -5.80692 -0.780468 -8.73719 -1.07314 c -11.9083 -2.92939 -24.0627 -4.10097 -35.7785 -7.07694 c -26.5992 -6.88182 -52.8626 -13.1783 -76.4849 -22.9886 c -7.07782 -2.88105 -13.8638 -5.17499 -20.6956 -8.2494 c -36.5123 -16.693 -71.1183 -37.4862 -88.8362 -72.9737 c -1.56181 -3.02519 -2.5374 -6.63661 -3.5622 -10.0547 c -0.58623 -1.85449 -0.58623 -4.19853 -1.61103 -5.712 c 0 -2.43896 0 -4.78212 0 -7.1745 c 0 -8.00594 -0.194238 -15.0345 2.05048 -20.6956 c 1.56269 -3.76083 2.34404 -7.32216 3.90585 -10.7393 c 1.36758 -3.12363 3.41806 -6.10136 5.27255 -8.88309 c 5.85702 -8.73807 12.1535 -16.9875 20.3563 -23.5283 c 3.95068 -3.07353 7.46542 -6.88182 11.8591 -9.66268 c 4.19853 -2.68418 8.29774 -6.0038 12.3987 -8.83475 c 7.0787 -4.88056 14.8368 -8.83563 22.6485 -12.7406 c 2.14804 -1.17158 4.24511 -2.24472 6.34481 -3.41806 c 5.27255 -2.00039 10.2999 -4.68544 15.4257 -7.0286 c 8.10262 -3.51474 16.1068 -6.19892 24.6005 -9.27332 c 5.46591 -2.05048 11.4214 -4.53954 17.1808 -6.0539 c 6.05126 -1.61103 12.0559 -3.90497 17.9631 -5.41757 c 8.00243 -2.00214 16.0093 -3.85576 23.9159 -6.15058 c 3.6123 -0.927244 6.93192 -1.0248 10.5433 -2.09882 c 10.64 -3.07441 22.7944 -4.63534 34.069 -6.83085 c 4.88232 -0.927244 9.37264 -1.02568 14.204 -2.00214 c 9.13006 -1.90459 19.3772 -2.09882 28.7499 -4.05087 c 2.14804 -0.195117 4.39452 -0.340136 6.48895 -0.537011 c 4.15195 -0.683788 9.03163 -0.830565 13.3761 -1.51347 c 1.60927 -0.0958008 3.22031 -0.0958008 4.8331 -0.195117 c 2.87753 -0.48955 6.29472 -0.292675 9.37176 -0.733007 c 3.95068 -0.633691 8.34344 -0.291796 12.6887 -0.878026 c 5.42021 -0.927244 11.8599 -0.927244 17.3768 -1.02568 C 470.132 62.1951 470.132 62.1459 470.132 62 Z" fill="#2c7dd5" /><path d="M 134.51 288.627 c 0.196875 0.0500977 0.488671 0.0500977 0.684667 0.0500977 c 2.04961 13.8137 13.2759 23.3296 22.4516 30.1148 c 26.0639 19.4264 58.3285 33.7754 92.6436 44.7099 c 7.70975 2.48994 16.1543 5.02734 23.9159 7.80907 c 4.29609 1.56181 8.93143 2.14804 13.0333 3.61054 c 2.97773 1.02744 5.71112 1.26914 8.73719 2.05136 c 6.44237 1.75781 13.5202 3.31787 20.0619 5.12401 c 2.1955 0.58623 3.85576 0.58623 6.05126 1.12236 c 4.8331 0.976463 10.299 2.43984 15.1787 3.4163 c 9.76287 1.95205 19.5732 3.41894 29.286 5.36923 c 12.3486 2.43984 25.1894 3.12363 37.683 5.36923 c 5.22245 0.780468 10.4924 0.780468 15.4221 1.65937 c 1.51523 0.0492188 3.07792 0.146777 4.63886 0.195117 c 4.9289 0.828807 10.7868 0.828807 15.7658 1.66025 c 9.762 0.585351 19.4748 1.2208 29.286 1.80615 c 4.24599 0.68203 9.17489 -0.0500977 13.0799 0.537011 c 3.02695 0 5.9537 0.0966797 8.97889 0.0966797 c 6.24901 0.976463 14.6461 0.243457 21.4778 0.243457 c 6.88182 0 14.4967 0.733886 20.9381 -0.243457 c 3.22382 -0.488671 6.68759 0.0483398 9.56952 -0.439452 c 4.34179 -0.0492188 8.6871 -0.195117 13.0315 -0.246094 c 4.10009 -0.292675 8.15096 -0.536132 12.2502 -0.878026 c 0.928123 0 1.90547 0 2.83359 0 c 3.95068 -0.58623 8.54032 -0.245215 12.8355 -0.976463 c 11.8107 -1.17158 23.6258 -2.34228 35.4366 -3.56308 c 6.15058 -1.22168 12.9841 -1.46513 19.1346 -2.53916 c 10.1048 -1.80703 20.8907 -3.17285 30.6527 -5.17499 c 2.58837 -0.537011 5.27343 -0.828807 7.90839 -1.17158 c 9.71366 -2.53828 19.9142 -3.61054 29.627 -6.24725 c 16.9374 -4.53866 33.7781 -8.5412 50.2259 -13.3251 c 13.5694 -4.00341 27.4306 -8.78729 39.9269 -14.1064 c 2.05312 -0.927244 3.9041 -1.31836 5.95634 -2.0997 c 5.17235 -1.90371 10.6409 -4.53866 15.5188 -6.93192 c 1.70771 -0.781347 3.31874 -1.0248 4.97812 -1.95293 c 14.4474 -7.51639 28.5055 -14.9352 41.0993 -24.0618 c 7.80819 -5.76034 15.3272 -12.8355 20.2069 -21.4268 c 0.634569 -1.3667 1.26738 -2.78261 1.90547 -4.10185 c 0.388476 -1.4625 0.437694 -4.53866 1.21992 -5.41669 c 0.390233 -0.293554 0.683788 0 0.976463 0.195117 c 0.780468 5.46679 0.0949219 13.4736 0.0949219 19.8175 c 0 13.2767 0 26.5535 0 39.8785 c 0 40.8541 0 81.7566 0 122.709 c 0 11.0303 0 22.2574 0 33.2876 c 0 6.78602 0.438573 13.9614 -0.682909 19.72 c -2.14541 10.8852 -6.19804 19.8175 -11.4205 27.6266 c -1.07666 1.51435 -1.80703 3.36884 -3.12451 4.783 c -3.26953 3.75995 -6.54081 7.61483 -9.762 11.518 c -1.36758 1.2208 -2.73252 2.43984 -4.05087 3.7582 c -3.46464 3.36884 -7.0286 6.44413 -10.9345 9.37176 c -13.1291 9.95975 -27.2355 19.9151 -43.2474 26.7969 c -2.19638 1.0248 -4.39277 2.2456 -6.58827 3.36796 c -6.10048 2.48906 -12.1526 5.32001 -18.2557 7.90839 c -8.44364 3.56308 -16.8873 6.14794 -25.7712 9.17489 c -15.423 5.22157 -31.9227 10.2498 -48.5164 14.1548 c -19.4765 4.59052 -39.5841 7.80907 -60.0854 11.6657 c -11.2746 1.41592 -22.5975 2.92939 -33.9231 4.39189 c -1.46426 0 -2.92851 0.146777 -4.29521 0.146777 c -7.32128 1.31748 -15.8141 1.26914 -23.3332 2.48906 c -4.19413 0.685546 -8.4911 0.245215 -12.3486 0.828807 c -5.31913 0.928123 -10.8835 0.0984375 -15.8607 0.928123 c -7.61571 0.0966797 -15.1796 0.390233 -22.7461 0.537011 c -7.0787 1.0749 -15.3756 0.391112 -22.9412 0.391112 c -7.41971 0 -15.5689 0.682909 -22.3558 -0.391112 c -5.76122 -0.146777 -11.4214 -0.293554 -17.1808 -0.437694 c -1.80615 0 -3.61054 0 -5.37011 -0.0975586 c -10.0555 -1.56269 -21.3794 -0.681151 -31.1897 -2.2456 c -2.78261 -0.14502 -5.56522 -0.439452 -8.29774 -0.488671 c -11.2763 -2.05136 -23.4782 -2.14716 -34.5076 -4.10185 c -3.41894 -0.341894 -6.83524 -0.779589 -10.2542 -1.12148 c -9.27157 -1.51435 -18.6433 -3.07529 -27.9167 -4.58788 c -24.8941 -5.61356 -49.5913 -9.81209 -72.1924 -17.5236 c -8.83475 -2.97509 -17.4252 -4.88144 -25.9163 -8.2494 c -10.1522 -4.24599 -20.2588 -8.25028 -30.2141 -12.3978 c -3.41718 -1.5126 -6.98026 -3.46288 -10.2023 -5.12314 c -3.80742 -2.14716 -7.41884 -3.71074 -11.1779 -5.61444 c -6.88182 -3.56396 -13.4235 -8.15096 -19.5732 -12.3477 c -8.98065 -6.10224 -19.7182 -13.667 -26.4058 -21.9164 c -1.31836 -1.31748 -2.6833 -2.68418 -4.00253 -4.00253 c -5.07568 -6.63837 -10.3465 -13.3242 -14.204 -21.2317 c -1.75693 -3.46464 -3.26953 -7.61571 -4.24599 -11.4715 c -0.537011 -2.09882 -0.58623 -4.24775 -1.61103 -5.80868 c 0 -24.2094 0 -48.4197 0 -72.5808 C 134.51 397.865 134.51 343.197 134.51 288.627 Z" fill="#2c7dd5" /><path d="M 134.51 586.275 c 0.196875 0.0958008 0.488671 0.0958008 0.684667 0.0958008 c 2.04961 13.8146 13.2759 23.233 22.4516 30.1166 c 26.0639 19.4264 58.3285 33.6779 92.6436 44.6607 c 7.70975 2.48906 16.1543 4.97812 23.9159 7.76161 c 4.29609 1.56181 8.93143 2.2456 13.0333 3.70986 c 2.97773 0.975584 5.71112 1.17158 8.73719 2.00127 c 6.44237 1.75781 13.5202 3.31787 20.0619 5.17411 c 2.1955 0.536132 3.85576 0.536132 6.05126 1.07578 c 4.8331 0.972947 10.299 2.48642 15.1787 3.4163 c 9.76287 2.00214 19.5732 3.36796 29.286 5.36835 c 12.3486 2.49082 25.1894 3.12363 37.683 5.32265 c 5.22245 0.877147 10.4924 0.877147 15.4221 1.70683 c 1.51523 0.0966797 3.07792 0.146777 4.63886 0.245215 c 4.9289 0.780468 10.7868 0.780468 15.7658 1.60927 c 9.762 0.58623 19.4748 1.17158 29.286 1.80527 c 4.24599 0.685546 9.17489 -0.0492188 13.0799 0.53789 c 3.02695 0 5.9537 0.0492188 8.97889 0.0492188 c 6.24901 1.02568 14.6461 0.292675 21.4778 0.292675 c 6.88182 0 14.4967 0.733007 20.9381 -0.292675 c 3.22382 -0.438573 6.68759 0.0984375 9.56952 -0.390233 c 4.34179 -0.0500977 8.6871 -0.196875 13.0315 -0.245215 c 4.10009 -0.291796 8.15096 -0.585351 12.2502 -0.828807 c 0.928123 0 1.90547 0 2.83359 0 c 3.95068 -0.684667 8.54032 -0.244336 12.8355 -1.0248 c 11.8107 -1.12148 23.6258 -2.34404 35.4366 -3.61142 c 6.15058 -1.1707 12.9841 -1.36582 19.1346 -2.48994 c 10.1048 -1.80527 20.8907 -3.12363 30.6527 -5.22069 c 2.58837 -0.440331 5.27343 -0.781347 7.90839 -1.12324 c 9.71366 -2.48906 19.9142 -3.5622 29.627 -6.19892 c 16.9374 -4.53954 33.7781 -8.63876 50.2259 -13.3743 c 13.5694 -4.00341 27.4306 -8.78553 39.9269 -14.1556 c 2.05312 -0.878905 3.9041 -1.26914 5.95634 -2.09882 c 5.17235 -1.85361 10.6409 -4.53866 15.5188 -6.88182 c 1.70771 -0.828807 3.31874 -0.975584 4.97812 -1.90371 c 14.4474 -7.56649 28.5055 -14.8869 41.0993 -24.0644 c 7.80819 -5.70937 15.3272 -12.8847 20.2069 -21.4752 c 0.634569 -1.36845 1.26738 -2.83095 1.90547 -4.05175 c 0.388476 -1.5126 0.437694 -4.58876 1.21992 -5.41845 c 0.390233 -0.391112 0.683788 0 0.976463 0.0949219 c 0.780468 5.46855 0.0949219 13.5703 0.0949219 19.8193 c 0 13.2776 0 26.5552 0 39.9735 c 0 40.8049 0 81.7584 0 122.662 c 0 11.0804 0 22.2574 0 33.2885 c 0 6.78427 0.438573 13.9605 -0.682909 19.7191 c -2.14541 10.8852 -6.19804 19.8659 -11.4205 27.6275 c -1.07666 1.56181 -1.80703 3.31787 -3.12451 4.783 c -3.26953 3.80566 -6.54081 7.66053 -9.762 11.5172 c -1.36758 1.2208 -2.73252 2.43984 -4.05087 3.70898 c -3.46464 3.36972 -7.0286 6.54169 -10.9345 9.42274 c -13.1291 9.95711 -27.2355 19.865 -43.2474 26.7978 c -2.19638 1.02392 -4.39277 2.24472 -6.58827 3.4163 c -6.10048 2.48906 -12.1526 5.22245 -18.2557 7.80907 c -8.44364 3.61142 -16.8873 6.24813 -25.7712 9.22586 c -15.423 5.22245 -31.9227 10.1997 -48.5164 14.1055 c -19.4765 4.63534 -39.5841 7.90839 -60.0854 11.6639 c -11.2746 1.46601 -22.5975 2.97949 -33.9231 4.39628 c -1.46426 0.0949219 -2.92851 0.243457 -4.29521 0.243457 c -7.32128 1.2665 -15.8141 1.2665 -23.3332 2.43984 c -4.19413 0.633691 -8.4911 0.243457 -12.3486 0.879783 c -5.31913 0.828807 -10.8835 0.0474609 -15.8607 0.828807 c -7.61571 0.145898 -15.1796 0.438573 -22.7461 0.536132 c -7.0787 1.12236 -15.3756 0.487792 -22.9412 0.487792 c -7.41971 0 -15.5689 0.635448 -22.3558 -0.487792 c -5.76122 -0.0958008 -11.4214 -0.243457 -17.1808 -0.390233 c -1.80615 -0.0509766 -3.61054 -0.0509766 -5.37011 -0.145898 c -10.0555 -1.5126 -21.3794 -0.634569 -31.1897 -2.24736 c -2.78261 -0.0492188 -5.56522 -0.341894 -8.29774 -0.436816 c -11.2763 -2.00214 -23.4782 -2.14892 -34.5076 -4.10185 c -3.41894 -0.437694 -6.83524 -0.77871 -10.2542 -1.07314 c -9.27157 -1.61015 -18.6433 -3.17197 -27.9167 -4.6371 c -24.8941 -5.61356 -49.5913 -9.80946 -72.1924 -17.4252 c -8.83475 -3.07441 -17.4252 -4.97636 -25.9163 -8.34608 c -10.1522 -4.14755 -20.2588 -8.2494 -30.2141 -12.397 c -3.41718 -1.46338 -6.98026 -3.46376 -10.2023 -5.17235 c -3.80742 -2.10058 -7.41884 -3.6123 -11.1779 -5.61532 c -6.88182 -3.51298 -13.4235 -8.05253 -19.5732 -12.2976 c -8.98065 -6.10399 -19.7182 -13.6678 -26.4058 -21.9665 c -1.31836 -1.2208 -2.6833 -2.63408 -4.00253 -3.95244 c -5.07568 -6.63925 -10.3465 -13.2767 -14.204 -21.1842 c -1.75693 -3.5666 -3.26953 -7.66493 -4.24599 -11.5198 c -0.537011 -2.09882 -0.58623 -4.24775 -1.61103 -5.85702 c 0 -24.1119 0 -48.3714 0 -72.5325 C 134.51 695.461 134.51 640.841 134.51 586.275 Z" fill="#2c7dd5" /></svg>