<?xml version="1.0" standalone="no"?><!DOCTYPE svg PUBLIC "-//W3C//DTD SVG 1.1//EN" "http://www.w3.org/Graphics/SVG/1.1/DTD/svg11.dtd"><svg class="icon" width="200px" height="141.44px" viewBox="0 0 1448 1024" version="1.1" xmlns="http://www.w3.org/2000/svg"><path d="M1391.59337 365.047514c-17.962431-22.771271-52.048619-35.359116-114.139226-42.00663-20.932597-2.262983-41.723757-3.394475-58.130387-3.960221-16.972376-48.937017-42.572376-80.053039-62.79779-98.439779-27.297238-24.751381-51.624309-33.096133-56.291713-34.510497-18.245304-5.657459-37.904972 1.555801-48.229834 17.679558-48.229834 75.102762-42.572376 145.396685-29.277348 191.080663 4.950276 17.255249 11.314917 32.247514 17.679558 44.552486-20.79116 10.041989-44.269613 13.295028-54.594475 13.5779h-69.728177v-93.065193c0-23.478453-18.952486-42.430939-42.430939-42.430939h-92.782321V89.529282c0-23.478453-18.952486-42.430939-42.430939-42.430939h-135.496133c-23.478453 0-42.430939 18.952486-42.430939 42.430939v92.78232h-84.296132c-2.828729-0.565746-5.657459-0.848619-8.627625-0.848619h-135.496132c-23.478453 0-42.430939 18.952486-42.43094 42.43094v92.78232h-92.78232c-23.478453 0-42.430939 18.952486-42.430939 42.430939v93.913812H80.477348c-23.478453 0-42.430939 18.952486-42.430939 42.43094 0 80.618785 11.739227 152.751381 34.79337 214.417679 22.064088 59.120442 54.877348 109.18895 97.449724 149.074033 75.951381 71.001105 182.877348 108.481768 309.462983 108.481768 76.234254 0 156.711602-13.153591 239.169061-39.319337 77.790055-24.609945 154.590055-60.39337 222.338122-103.390055 69.303867-44.128177 128.848619-95.752486 172.269613-149.498342C1152.424309 626.563536 1178.448619 577.060773 1190.895028 527.558011c67.323757-4.80884 120.928177-23.61989 159.964641-56.291713 37.056354-30.974586 46.81547-63.222099 48.512707-69.445304 3.253039-12.729282 0.424309-26.448619-7.779006-36.77348z m-560.371271 87.832044h-50.351381v-50.634254h50.351381v50.634254z m-135.213259-135.354696h-50.351381V267.314917h50.351381v50.209945z m-320.919337 84.861878h50.351381v50.634254h-50.351381v-50.634254z m135.354696 0.141437h50.068508v50.351381h-50.068508v-50.351381z m135.21326 0H695.867403v50.351381h-50.068508v-50.351381z m50.351381-270.567956v50.351381h-50.634254V131.960221h50.634254z m-135.354696 135.21326v50.351381h-50.351382v-50.351381h50.351382z m-185.988951-0.990056h50.634255V316.81768h-50.634255v-50.634255z m-135.213259 135.21326h50.634254v50.634254h-50.634254v-50.634254z m807.885083 220.499448c-37.622099 46.674033-89.953591 91.933702-151.61989 131.111602-127.434254 81.043094-283.014365 129.414365-415.964641 129.414364-96.742541 0-178.351381-25.317127-237.471823-73.405524 74.961326-0.565746 134.081768-10.466298 175.805525-29.418785 21.356906-9.759116 30.691713-34.934807 20.932597-56.291713s-34.934807-30.691713-56.291713-20.932596c-55.160221 25.175691-157.98453 23.478453-211.58895 19.518232-26.872928-50.209945-42.572376-111.59337-46.956907-184.00884h862.903868c8.203315-0.141436 73.971271-2.262983 124.322652-43.279558-7.920442 41.299448-29.277348 84.154696-64.070718 127.292818z m108.057458-177.927072c-5.798895 0-11.173481 1.131492-16.265193 3.253038-0.565746-8.627624-3.677348-17.255249-9.61768-24.327071-0.141436-0.141436-16.265193-20.508287-25.17569-51.482873-8.203315-28.145856-7.920442-55.725967 0.565745-82.598895 14.850829 15.416575 31.540331 40.733702 40.592266 81.608839 4.38453 19.376796 21.498343 33.237569 41.440884 33.23757H1189.622099c8.627624 0 39.036464 0.282873 71.142542 3.253038 12.163536 1.131492 22.064088 2.40442 30.40884 3.818785-22.488398 16.265193-63.222099 33.237569-135.779006 33.237569z"  /><path d="M525.012155 700.39337m-58.554696 0a58.554696 58.554696 0 1 0 117.109392 0 58.554696 58.554696 0 1 0-117.109392 0Z"  /></svg>