<?xml version="1.0" standalone="no"?><!DOCTYPE svg PUBLIC "-//W3C//DTD SVG 1.1//EN" "http://www.w3.org/Graphics/SVG/1.1/DTD/svg11.dtd"><svg class="icon" width="200px" height="200.00px" viewBox="0 0 1024 1024" version="1.1" xmlns="http://www.w3.org/2000/svg"><path d="M512 0C229.233 0 0 229.233 0 512c0 282.788 229.233 512 512 512s512-229.192 512-512C1024 229.233 794.767 0 512 0zM176.476 727.757c-20.93 0-37.888-29.45-37.888-65.802 0-6.718 0.758-13.046 1.823-19.129 9.707-70.594 55.93-129.515 119.173-156.836-24.924-21.995-40.735-54.17-40.735-90.03 0-66.375 53.842-120.217 120.218-120.217 19.272 0 37.437 4.649 53.576 12.718-11.695 2.99-22.651 7.68-32.707 13.803-7.25-1.904-14.807-3.03-22.61-3.03-52.634 0-95.293 46.14-95.293 103.034 0 39.035 20.07 73.011 49.705 90.48-68.404 22.14-118.313 90.584-118.313 171.787 0 12.882 4.649 25.969 5.652 28.447 0.041 0.164 0.062 0.286 0.103 0.41h0.163c2.97 6.799 9.114 14.602 16.446 14.602h32.87c3.236 8.192 7.598 14.807 12.595 19.763h-64.778z m524.33 46.653h-377.57c-24.33 0-44.032-34.16-44.032-76.37 0-7.803 0.88-15.155 2.13-22.241 11.325-81.92 65.003-150.364 138.445-182.067-28.96-25.56-47.33-62.874-47.33-104.55 0-77.087 62.485-139.572 139.571-139.572 77.067 0 139.572 62.505 139.572 139.571 0 41.677-18.35 78.992-47.33 104.55 73.442 31.704 127.12 100.107 138.404 182.068 1.25 7.086 2.13 14.438 2.13 22.241 0 42.21-19.681 76.37-43.99 76.37z m146.718-46.653h-64.799c4.997-4.956 9.36-11.55 12.595-19.763h32.87c7.312 0 13.477-7.803 16.446-14.603h0.164c0.041-0.123 0.082-0.245 0.082-0.41 1.044-2.477 5.673-15.564 5.673-28.446 0-81.203-49.93-149.647-118.313-171.786 29.594-17.47 49.684-51.446 49.684-90.48 0-56.894-42.639-103.036-95.273-103.036-7.802 0-15.319 1.127-22.61 3.031a118.842 118.842 0 0 0-32.686-13.803c16.118-8.07 34.284-12.718 53.556-12.718 66.355 0 120.238 53.821 120.238 120.217 0 35.86-15.831 68.035-40.755 90.03 63.242 27.32 109.486 86.221 119.193 156.836 1.045 6.083 1.802 12.39 1.802 19.129 0 36.372-16.916 65.802-37.867 65.802z"  /><path d="M567.235 499.384c34.406-20.275 57.712-59.72 57.712-105.062 0-66.069-49.52-119.644-110.633-119.644s-110.653 53.575-110.653 119.644c0 44.749 22.733 83.64 56.36 104.161-81.1 24.535-140.656 104.878-140.656 200.356 0 18.555 7.311 37.13 7.311 37.13 3.4 7.803 10.61 13.353 19.088 13.353h332.902c8.5 0 15.667-9.113 19.108-16.957h0.205c0.04-0.164 0.061-0.328 0.102-0.471 1.188-2.888 6.574-18.084 6.574-33.034-0.02-94.27-57.979-173.773-137.42-199.476z"  /></svg>