<?xml version="1.0" standalone="no"?><!DOCTYPE svg PUBLIC "-//W3C//DTD SVG 1.1//EN" "http://www.w3.org/Graphics/SVG/1.1/DTD/svg11.dtd"><svg class="icon" width="200px" height="138.47px" viewBox="0 0 1479 1024" version="1.1" xmlns="http://www.w3.org/2000/svg"><path d="M1365.333333 853.333333H455.111111l-398.222222 170.666667 56.888889-170.666667a113.777778 113.777778 0 0 1-113.777778-113.777777V113.777778a113.777778 113.777778 0 0 1 113.777778-113.777778h1251.555555a113.777778 113.777778 0 0 1 113.777778 113.777778v625.777778a113.777778 113.777778 0 0 1-113.777778 113.777777z m-561.322666-194.503111h43.349333V537.144889h155.534222v164.465778h44.430222V537.144889h160.540445v52.224c0 20.024889-11.434667 30.037333-34.417778 30.037333-19.285333 0-40.163556-1.137778-62.805333-3.356444 3.356444 15.587556 6.144 29.809778 8.362666 42.780444 24.462222 0.398222 46.08 0.568889 65.024 0.568889 44.771556 0 67.185778-21.333333 67.185778-63.886222v-95.004445H1047.324444V448.284444h110.023112v19.968h42.211555v-141.653333h-347.761778v141.653333h42.211556V448.284444h108.885333v52.224h-198.883555v158.321778z m-121.685334-350.549333c-3.697778 25.543111-7.793778 46.08-12.231111 61.667555-5.176889 19.626667-22.016 29.468444-50.517333 29.468445H324.551111c-25.543111 0-38.343111-12.629333-38.343111-37.831111V329.955556h316.131556v18.887111h42.780444V179.939556H243.427556v186.140444c0 48.128 23.722667 72.192 71.111111 72.192h314.993777c44.487111 0 71.509333-17.009778 81.123556-51.086222 3.356444-10.752 8.533333-31.288889 15.587556-61.667556a738.986667 738.986667 0 0 1-43.918223-17.237333z m43.918223 212.764444h-133.347556V454.940444H548.977778v66.104889H363.747556c1.251556-19.626667 1.934222-41.813333 1.934222-66.673777h-43.918222c0.170667 25.372444-0.455111 47.616-1.934223 66.673777H183.466667v38.912h131.356444c-5.006222 45.169778-43.576889 80.156444-115.825778 104.96 11.491556 13.710222 21.674667 26.339556 30.549334 37.831111 82.204444-32.256 125.553778-79.815111 129.991111-142.791111h189.44v140.515556h43.918222v-140.515556h133.347556v-38.912z m551.651555-269.994666h-126.691555a2061.084444 2061.084444 0 0 0 83.911111-58.88l-32.199111-32.768c-27.420444 22.584889-56.32 43.861333-86.698667 63.886222l22.243555 27.761778H1046.755556V153.827556h-44.430223v97.223111h-98.019555l29.696-31.687111a2676.963556 2676.963556 0 0 0-83.911111-58.311112l-25.543111 28.899556c26.851556 19.626667 52.679111 39.992889 77.482666 61.098667h-130.787555v98.360889h43.292444V288.824889h420.010667v60.586667h43.349333V251.050667zM286.208 218.282667h316.131556v73.329777H286.208V218.282667z m607.800889 143.872h263.338667v50.574222h-263.338667v-50.574222z" fill="#FB6262" /></svg>