<?xml version="1.0" standalone="no"?><!DOCTYPE svg PUBLIC "-//W3C//DTD SVG 1.1//EN" "http://www.w3.org/Graphics/SVG/1.1/DTD/svg11.dtd"><svg class="icon" width="200px" height="141.44px" viewBox="0 0 1448 1024" version="1.1" xmlns="http://www.w3.org/2000/svg"><path d="M1014.391258 773.078038l-21.406818-31.988597 64.098824-37.340302V319.521083l-192.053213-112.020905 18.609336-31.988597 210.784179 122.724314v426.920062L1014.391258 773.078038zM390.066279 551.71208H352.725977V300.911747L731.602328 87.451716l85.384012 48.043711-18.730965 34.664449-66.653047-40.016153-341.536049 192.053213v229.515144zM723.574771 938.494358L352.725977 727.710179v-103.993348h37.340302v82.70816l333.508492 189.377361 216.135883-122.724314 18.609336 32.110227-234.745219 133.306093z" fill="#00A0E9" /><path d="M699.613731 335.576197l-82.70816-48.043711v-29.312745l109.345053-64.098824 106.6692 64.098824v29.312745L752.887516 335.576197l-2.675852 29.312745-23.96104-15.933484-26.636893 15.933484v-29.312745zM867.705903 527.62941v-95.965792l-82.829789-48.043711v-29.434374l106.79083-61.301342 109.345053 61.301342v125.400166l-109.345053 61.422972-23.961041-13.379261zM616.905571 767.726333V645.002019l23.96104-15.933484 82.70816 48.043711 85.384013-48.043711 23.96104 13.257632v125.400166l-109.345053 64.098824-106.6692-64.098824zM867.705903 719.804252v-96.087421l-26.758522-16.055113 26.758522-13.257632v-29.434375l23.961041 16.055114 82.70816-48.043711 26.636893 13.379261v125.400167l-109.345053 61.301342-23.961041-13.257632z" fill="#BBF2FF" /><path d="M616.905571 575.67312V450.272954l109.345053-61.301342 106.6692 61.301342v125.400166l-109.345053 61.301343-106.6692-61.301343zM446.137546 671.760542l2.675852-125.400167 23.961041-13.379261 82.70816 48.043711 26.636893-16.055114v29.434375l26.758522 15.933484-26.758522 13.379261v96.087421l-26.636893 13.257632-109.345053-61.301342z" fill="#BBF2FF" /><path d="M446.137546 479.585699l2.675852-125.400166 109.345053-61.301342 106.669201 61.301342v29.434374l-82.70816 48.043711v93.289939l-26.636893 16.055114-109.345053-61.422972z" fill="#BBF2FF" /></svg>