<?xml version="1.0" standalone="no"?><!DOCTYPE svg PUBLIC "-//W3C//DTD SVG 1.1//EN" "http://www.w3.org/Graphics/SVG/1.1/DTD/svg11.dtd"><svg class="icon" width="200px" height="141.44px" viewBox="0 0 1448 1024" version="1.1" xmlns="http://www.w3.org/2000/svg"><path d="M1198.90780905 922.17709551l-33.63203778-50.25696494 100.7050216-58.66497519V209.5982977l-301.732883-175.99492397 29.23694172-50.25696498 331.16091643 192.81094287v670.72984151L1198.90780905 922.17709551zM218.03707585 574.39125189H159.37210065V180.36135595L754.62094813-155.00356483l134.14596768 75.48099407-29.42803185 54.46096928-104.71793583-62.86897793-536.58387228 301.73288302v360.58894828zM742.00893358 1182.06102223L159.37210065 850.90010579v-163.38290945h58.6649752v129.94196338l523.97185773 297.52887869 339.56892508-192.81094288 29.23694175 50.44805663-368.80586683 209.43587009z" fill="#00A0E9" /><path d="M704.36398317 234.82232679l-129.94196335-75.48099403v-46.05296067l171.79091965-100.70502159 167.58691377 100.70502159v46.05296067L788.06189421 234.82232679l-4.20400431 46.05296064-37.64495043-25.03293739-41.8489563 25.03293739v-46.05296064zM968.4519142 536.55520979v-150.77089644l-130.1330535-75.48099408v-46.24405073l167.77800545-96.30992559 171.79091967 96.30992559v197.0149472l-171.79091967 96.50101728-37.64495195-21.0200232zM574.42201982 913.76908531V720.95814245l37.6449504-25.03293745 129.94196336 75.48099407 134.14596924-75.48099407 37.64495042 20.82893311v197.0149472l-171.79091966 100.70502159-167.58691376-100.70502159zM968.4519142 838.47918292v-150.96198658l-42.04004642-25.22402752 42.04004642-20.82893312v-46.24405229l37.64495195 25.22402911 129.94196338-75.48099408 41.84895629 21.02002322v197.01494874l-171.79091967 96.30992563-37.64495195-20.82893311z" fill="#BBF2FF" /><path d="M574.42201982 612.0362023V415.02125509l171.79091965-96.30992558 167.58691377 96.30992558v197.01494721l-171.79091966 96.30992715-167.58691376-96.30992715zM306.13008286 762.9981904l4.20400435-197.01494874 37.64495197-21.02002322 129.94196336 75.48099408 41.84895632-25.22402911v46.24405229l42.04004642 25.03293744-42.04004642 21.0200232v150.96198658l-41.84895632 20.82893311-171.79091963-96.30992563z" fill="#BBF2FF" /><path d="M306.13008286 461.07421574l4.20400435-197.0149472 171.79091968-96.30992559 167.58691532 96.30992559v46.24405073l-129.94196335 75.48099408v146.56689056l-41.84895632 25.22402911-171.79091968-96.50101728z" fill="#BBF2FF" /></svg>