<?xml version="1.0" standalone="no"?><!DOCTYPE svg PUBLIC "-//W3C//DTD SVG 1.1//EN" "http://www.w3.org/Graphics/SVG/1.1/DTD/svg11.dtd"><svg class="icon" width="200px" height="200.00px" viewBox="0 0 1024 1024" version="1.1" xmlns="http://www.w3.org/2000/svg"><path d="M511.488 992.256H41.472c-27.136 0-35.84-8.192-35.84-35.328 0-144.96-0.512-290.304 0.512-435.2 0-19.456 6.656-38.912 11.776-57.856 38.4-135.68 76.8-270.848 114.688-406.528 5.632-19.968 13.312-25.6 33.792-25.6h691.2c19.968 0 27.648 6.144 33.28 25.088 41.472 146.432 82.432 293.376 123.904 439.808 2.112 7.68 3.648 16.384 3.648 24.576v436.224c0 26.112-9.28 35.328-35.392 35.328-157.184-0.512-314.432-0.512-471.552-0.512z m-451.584-54.784h903.744c0-3.648 0.512-6.656 0.512-9.728V524.288c0-6.144-1.088-11.776-2.624-17.408-26.624-95.232-53.248-189.952-79.872-284.672l-38.4-135.168H181.76c-1.024 3.072-2.048 5.632-2.56 8.192-38.4 136.704-77.312 273.92-115.2 410.624a81.6 81.6 0 0 0-3.072 22.016v396.8c-1.024 3.584-1.024 8.192-1.024 12.8z" fill="#158FF6" /><path d="M862.272 502.784c-38.464 0-75.328 0.512-112.128-0.512a30.016 30.016 0 0 0-25.152 11.264c-36.864 40.96-73.728 81.408-111.104 121.344a24 24 0 0 1-15.872 7.168c-57.344 0.512-115.2 0.512-172.544 0A22.976 22.976 0 0 1 409.6 634.88c-38.4-41.536-76.288-82.944-114.176-124.416a21.312 21.312 0 0 0-17.408-7.68c-38.4 0.512-76.8 0-116.224 0 31.744-128 63.488-255.488 95.232-382.976h509.44l95.808 382.976zM299.52 173.568c-23.04 91.648-45.568 182.784-68.608 275.456 17.408 0 33.28 0.512 48.64 0 22.016-1.024 38.912 7.168 53.76 23.04 33.28 36.864 66.56 73.216 100.352 109.568a24.32 24.32 0 0 0 15.36 6.656c41.472 0.512 83.456 0.512 124.928-0.064a22.784 22.784 0 0 0 15.872-7.104c33.792-36.352 67.584-72.704 100.864-109.568 13.824-15.36 30.656-23.552 51.712-22.528 16.384 0.512 32.768 0 49.664 0-0.512-4.096-1.088-6.656-1.536-9.216a37238.912 37238.912 0 0 1-63.488-255.488c-1.984-8.704-5.632-10.752-14.272-10.752-134.208 0.512-268.352 0-402.496 0H299.52z" fill="#158FF6" /><path d="M513.024 252.416h84.48c20.032 0 32.256 10.752 32.256 28.16 0 16.896-12.224 28.16-32.256 28.16H425.472c-19.456 0-32.256-11.264-31.744-28.672 0-16.896 12.288-27.648 31.744-27.648h87.552z m-2.56 184.832h-84.48c-19.968 0-32.256-10.752-32.256-28.16 0-16.896 12.288-28.16 32.256-28.16h172.032c19.52 0 32.256 11.264 31.744 28.672 0 16.896-12.224 27.648-31.232 27.648-29.632 0.512-58.88 0-88.064 0z" fill="#158FF6" /></svg>