<?xml version="1.0" standalone="no"?><!DOCTYPE svg PUBLIC "-//W3C//DTD SVG 1.1//EN" "http://www.w3.org/Graphics/SVG/1.1/DTD/svg11.dtd"><svg class="icon" width="200px" height="200.00px" viewBox="0 0 1024 1024" version="1.1" xmlns="http://www.w3.org/2000/svg"><path d="M64 812.8h902.4v51.2H64z" fill="#E6F4FF" /><path d="M1017.6 736v-19.2c-38.4-211.2-83.2-428.8-121.6-640-6.4-25.6-12.8-38.4-32-38.4H166.4c-19.2 0-25.6 6.4-32 38.4L19.2 672c-6.4 19.2-6.4 44.8-12.8 64v256c0 25.6 6.4 32 32 32h947.2c25.6 0 32-6.4 32-32v-256z m-51.2 76.8v160H64v-160H25.6v-70.4H64v-12.8C102.4 531.2 140.8 326.4 179.2 128v-12.8h659.2l38.4 198.4c25.6 140.8 51.2 275.2 83.2 416v12.8h32v70.4h-25.6z" fill="#3B93FF" /><path d="M486.4 300.8l25.6-12.8 19.2 12.8 6.4-25.6 70.4-38.4v-25.6L512 153.6l-96 57.6v25.6l70.4 38.4zM563.2 294.4V320l70.4 44.8V448l25.6 12.8 96-57.6V294.4l-96-57.6zM512 576l-76.8-38.4-19.2 12.8v108.8l96 57.6 96-57.6V550.4l-25.6-12.8zM659.2 492.8l-25.6-12.8v25.6l-19.2 12.8 19.2 12.8v83.2l25.6 12.8 96-51.2V460.8l-25.6-6.4z" fill="#3B93FF" /><path d="M416 377.6v108.8l96 57.6 96-57.6V377.6L512 326.4zM384 480l-25.6 12.8-70.4-38.4-19.2 6.4L262.4 576l96 51.2 25.6-12.8V531.2l25.6-12.8-25.6-12.8z" fill="#3B93FF" /><path d="M384 441.6V364.8L460.8 320v-25.6l-96-57.6-96 57.6-6.4 108.8 96 57.6zM998.4 742.4H25.6v70.4h972.8z" fill="#3B93FF" /></svg>