<?xml version="1.0" standalone="no"?><!DOCTYPE svg PUBLIC "-//W3C//DTD SVG 1.1//EN" "http://www.w3.org/Graphics/SVG/1.1/DTD/svg11.dtd"><svg class="icon" width="200px" height="200.00px" viewBox="0 0 1024 1024" version="1.1" xmlns="http://www.w3.org/2000/svg"><path d="M665.320727 789.271273l-123.159272-30.138182a170.658909 170.658909 0 1 1-212.433455-251.578182l-28.206545-137.611636a83.735273 83.735273 0 1 1 55.156363-13.707637l28.113455 136.471273a169.937455 169.937455 0 0 1 120.040727 34.024727l111.266909-119.808a113.780364 113.780364 0 1 1 40.052364 40.448l-112.360728 120.948364a169.890909 169.890909 0 0 1 22.644364 138.24l111.173818 27.136a79.592727 79.592727 0 0 1 146.152728 43.869091 79.639273 79.639273 0 0 1-158.440728 11.706182zM113.757091 0h796.462545C973.056 0 1024 50.944 1024 113.780364V910.196364c0 62.836364-50.944 113.780364-113.780364 113.780363H113.803636A113.780364 113.780364 0 0 1 0 910.219636V113.803636C0 50.944 50.944 0 113.780364 0z m0 56.878545A56.878545 56.878545 0 0 0 56.901818 113.803636V910.196364a56.878545 56.878545 0 0 0 56.901818 56.901818H910.196364a56.878545 56.878545 0 0 0 56.901818-56.901818V113.803636a56.878545 56.878545 0 0 0-56.901818-56.901818H113.803636zM401.454545 776.308364a113.780364 113.780364 0 1 0 0-227.560728 113.780364 113.780364 0 0 0 0 227.560728z m-91.415272-451.537455a38.144 38.144 0 1 0 0-76.288 38.144 38.144 0 0 0 0 76.288z m404.317091 81.757091a56.878545 56.878545 0 1 0 0-113.780364 56.878545 56.878545 0 0 0 0 113.780364z m28.439272 403.921455a34.141091 34.141091 0 1 0 0-68.282182 34.141091 34.141091 0 0 0 0 68.282182z" /></svg>