<?xml version="1.0" standalone="no"?><!DOCTYPE svg PUBLIC "-//W3C//DTD SVG 1.1//EN" "http://www.w3.org/Graphics/SVG/1.1/DTD/svg11.dtd"><svg class="icon" width="200px" height="126.58px" viewBox="0 0 1618 1024" version="1.1" xmlns="http://www.w3.org/2000/svg"><path d="M1324.50578954 1015.96456152H290.12215833C135.36417722 1015.96456152 18.66666666 891.73646506 18.66666666 726.93179619 18.66666666 587.4121783 101.44996013 475.81774747 223.19739418 445.97890588c30.67163564-149.3891152 162.02278181-258.85726355 316.55041425-258.85726355a321.67121372 321.67121372 0 0 1 131.93587378 28.22640975 426.74504316 426.74504316 0 0 1 367.49261784-207.3126136c237.18689367 0 430.27112953 193.84615392 430.27112855 432.23794032 0 12.17297123-0.51385163 24.32822372-1.48839764 36.23541075a290.29081725 290.29081725 0 0 1 144.21515948 250.45844414c0 159.47124145-129.0299535 289.03276631-287.66840091 289.03276631z m0 0" fill="#0F88EB" /></svg>