<?xml version="1.0" standalone="no"?><!DOCTYPE svg PUBLIC "-//W3C//DTD SVG 1.1//EN" "http://www.w3.org/Graphics/SVG/1.1/DTD/svg11.dtd"><svg class="icon" width="200px" height="200.00px" viewBox="0 0 1024 1024" version="1.1" xmlns="http://www.w3.org/2000/svg"><path d="M830.27027 821.045045h-73.801802a18.45045 18.45045 0 0 1 0-36.900901h73.801802V355.909189a18.45045 18.45045 0 1 1 36.900901 0V784.144144a36.900901 36.900901 0 0 1-36.900901 36.900901zM184.504505 433.585586a18.45045 18.45045 0 0 1-18.450451-18.450451v-258.306306a36.900901 36.900901 0 0 1 36.900901-36.900901h387.459459a18.45045 18.45045 0 0 1 0 36.900901H202.954955v258.306306a18.45045 18.45045 0 0 1-18.45045 18.450451z" fill="#23AC38" /><path d="M18.45045 839.495495h664.216217v52.768289A30.258739 30.258739 0 0 1 652.407928 922.522523H48.709189A30.258739 30.258739 0 0 1 18.45045 892.263784V839.495495z" fill="#D3EED7" /><path d="M18.45045 830.27027h664.216217v18.450451H18.45045z" fill="#23AC38" /><path d="M664.216216 950.198198H36.900901a36.900901 36.900901 0 0 1-36.900901-36.900901v-405.90991a36.900901 36.900901 0 0 1 36.900901-36.900901h627.315315a36.900901 36.900901 0 0 1 36.900901 36.900901v405.90991a36.900901 36.900901 0 0 1-36.900901 36.900901z m-627.315315-442.810811v405.90991h627.315315v-405.90991z" fill="#23AC38" /><path d="M202.954955 987.099099l295.207207 0 0 36.900901-295.207207 0 0-36.900901Z" fill="#23AC38" /><path d="M313.657658 931.747748l73.801801 0 0 92.252252-73.801801 0 0-92.252252Z" fill="#23AC38" /><path d="M73.801802 544.288288h553.513513v258.306307H73.801802zM664.216216 212.18018h350.558559V239.855856a18.45045 18.45045 0 0 1-18.450451 18.45045H682.666667a18.45045 18.45045 0 0 1-18.450451-18.45045v-27.675676z" fill="#D3EED7" /><path d="M664.216216 202.954955h350.558559v18.45045H664.216216z" fill="#23AC38" /><path d="M996.324324 276.756757H682.666667a27.675676 27.675676 0 0 1-27.675676-27.675676v-221.405405A27.675676 27.675676 0 0 1 682.666667 0h313.657657a27.675676 27.675676 0 0 1 27.675676 27.675676v221.405405A27.675676 27.675676 0 0 1 996.324324 276.756757zM682.666667 18.45045a9.225225 9.225225 0 0 0-9.225226 9.225226v221.405405a9.225225 9.225225 0 0 0 9.225226 9.225225h313.657657a9.225225 9.225225 0 0 0 9.225226-9.225225v-221.405405A9.225225 9.225225 0 0 0 996.324324 18.45045z" fill="#23AC38" /><path d="M830.27027 267.531532h36.900901v36.9009h-36.900901z" fill="#23AC38" /><path d="M922.522523 313.657658h-147.603604a9.225225 9.225225 0 0 1 0-18.450451h147.603604a9.225225 9.225225 0 0 1 0 18.450451z" fill="#23AC38" /><path d="M701.117117 46.126126h276.756757v129.153153H701.117117z" fill="#D3EED7" /></svg>