<?xml version="1.0" standalone="no"?><!DOCTYPE svg PUBLIC "-//W3C//DTD SVG 1.1//EN" "http://www.w3.org/Graphics/SVG/1.1/DTD/svg11.dtd"><svg class="icon" width="200px" height="200.00px" viewBox="0 0 1024 1024" version="1.1" xmlns="http://www.w3.org/2000/svg"><path d="M633.4 508.4H379.1c-10.2 0-17.1 6.8-17.1 17.1v163.8c0 10.2 6.8 17.1 17.1 17.1h252.6c10.2 0 17.1-6.8 17.1-17.1V525.5c1.6-10.3-6.9-17.1-15.4-17.1zM527.6 629.6s0 1.7 0 0c0 10.2-6.8 18.8-17.1 18.8-10.2 0-17.1-6.8-17.1-17.1v-1.7c-10.2-5.1-17.1-17.1-17.1-29 0-18.8 15.4-34.1 34.1-34.1 18.8 0 34.1 15.4 34.1 34.1 0.1 11.9-6.7 23.9-16.9 29z m0 0" fill="#13E4FA" /><path d="M886 494.7C877.5 295 711.9 136.3 510.5 136.3S143.6 295.1 135 494.7v25.6c5.1 203.1 170.7 366.9 375.5 366.9S880.8 723.4 886 520.3v-25.6zM749.4 319c-34.1 27.3-73.4 41-104.1 49.5-18.8-70-51.2-128-87-158.7 76.8 11.9 143.3 51.1 191.1 109.2zM462.7 209.7c-34.1 30.7-66.6 88.7-85.3 157-30.7-8.5-68.3-22.2-102.4-49.5 46.1-58 112.6-95.5 187.7-107.5z m298.7 477.9c-13.7-11.9-30.7-22.2-47.8-32.4-23.9-12-35.8 11.9-13.7 22.2 15.4 6.8 30.7 17.1 46.1 29-49.5 59.7-119.5 99-199.7 107.5 17.1-11.9 35.8-32.4 51.2-58 5.1-13.7-17.1-22.2-29-1.7-20.5 29-41 46.1-59.7 46.1-17.1 0-39.3-17.1-58-44.4-17.1-25.6-34.1-11.9-30.7 0 15.4 23.9 32.4 42.7 49.5 56.3-78.6-6.8-146.8-46.1-194.6-104.1 15.4-11.9 30.7-22.2 46.1-29 22.2-11.9 8.5-34.1-13.7-22.2-15.4 8.5-32.4 18.8-47.8 30.7-34.1-47.8-52.9-105.8-54.6-167.3h105.8c6.8 0 13.7-5.1 13.7-13.7 0-8.5-5.1-13.7-13.7-13.7H205c3.4-58 22.2-112.6 54.6-158.7 30.7 27.3 73.4 44.4 110.9 54.6-3.4 17.1-6.8 34.1-8.5 52.9 0 15.4 25.6 15.4 25.6 0 13.7-119.5 76.8-227 122.9-227 46.1 0 109.2 109.2 124.6 230.4 1.7 15.4 27.3 13.7 25.6 0-1.7-17.1-5.1-34.1-8.5-51.2 39.2-10.2 81.9-27.3 112.6-54.6 30.7 44.4 49.5 99 52.9 155.3H711.9c-6.8 0-13.7 5.1-13.7 13.7 0 8.5 5.1 13.7 13.7 13.7h105.8c-1.7 61.5-22.2 117.8-56.3 165.6z m0 0" fill="#13E4FA" /><path d="M510.5 354.8c-47.8 0-85.3 37.5-85.3 85.3v25.6h34.1v-25.6c0-27.3 22.2-51.2 51.2-51.2 29 0 51.2 22.2 51.2 51.2v119.5h34.1V440.1c0-47.8-37.5-85.3-85.3-85.3z m0 0" fill="#13E4FA" /></svg>