<?xml version="1.0" standalone="no"?><!DOCTYPE svg PUBLIC "-//W3C//DTD SVG 1.1//EN" "http://www.w3.org/Graphics/SVG/1.1/DTD/svg11.dtd"><svg class="icon" width="200px" height="200.00px" viewBox="0 0 1024 1024" version="1.1" xmlns="http://www.w3.org/2000/svg"><path d="M330.89536 512l181.00224-181.02272L692.9408 512l-181.0432 181.02272z" fill="#C4D6F8" /><path d="M512 327.68m-61.44 0a61.44 61.44 0 1 0 122.88 0 61.44 61.44 0 1 0-122.88 0Z" fill="#FED634" /><path d="M696.32 512m-61.44 0a61.44 61.44 0 1 0 122.88 0 61.44 61.44 0 1 0-122.88 0Z" fill="#FED634" /><path d="M327.68 512m-61.44 0a61.44 61.44 0 1 0 122.88 0 61.44 61.44 0 1 0-122.88 0Z" fill="#FED634" /><path d="M512 696.32m-61.44 0a61.44 61.44 0 1 0 122.88 0 61.44 61.44 0 1 0-122.88 0Z" fill="#FED634" /><path d="M880.64 466.7392l81.92-140.4928-63.6928-109.7728h-161.1776l-83.7632-44.2368-78.2336-141.7216h-127.3856L370.688 172.2368 286.72 215.4496l-161.792 1.024L61.44 326.2464l81.92 136.8064v97.6896l-81.92 137.0112 63.6928 109.7728h161.1776l84.3776 44.6464 77.6192 140.288h127.3856l78.2336-140.288 79.6672-44.6464h160.9728L962.56 697.7536l-81.92-137.0112z m33.3824 230.6048l-43.2128 70.0416h-148.8896l-98.0992 55.9104-72.2944 129.2288h-79.0528l-71.8848-129.6384-104.0384-55.296H148.6848l-39.7312-69.4272L184.32 572.0064v-120.2176l-75.776-125.952 39.7312-68.608 148.2752-1.024 103.6288-53.248 72.0896-131.4816h78.848l72.4992 131.4816 103.6288 53.6576h147.6608l39.936 69.0176L839.68 455.68v116.1216z" fill="#0459E0" /><path d="M582.4512 658.8416l76.3904-76.3904a81.92 81.92 0 1 0 0-140.9024l-76.3904-76.3904a81.92 81.92 0 1 0-140.9024 0l-76.3904 76.3904a81.92 81.92 0 1 0 0 140.9024l76.3904 76.3904a81.92 81.92 0 1 0 140.9024 0z m146.8416-175.7184a40.96 40.96 0 1 1-57.9584 0 40.96 40.96 0 0 1 57.9584 0z m-245.76-188.416a40.96 40.96 0 1 1 0 57.9584 40.96 40.96 0 0 1-0.4096-57.9584z m-188.416 245.76a40.96 40.96 0 1 1 57.9584 0 40.96 40.96 0 0 1-58.368 0.4096zM471.04 629.9648L394.0352 552.96a81.92 81.92 0 0 0 0-81.92L471.04 394.0352a81.92 81.92 0 0 0 81.92 0L629.9648 471.04a81.92 81.92 0 0 0 0 81.92L552.96 629.9648a81.92 81.92 0 0 0-81.92 0z m12.4928 99.328a40.96 40.96 0 1 1 57.7536 0 40.96 40.96 0 0 1-58.1632 0z" fill="#0459E0" /></svg>