<?xml version="1.0" standalone="no"?><!DOCTYPE svg PUBLIC "-//W3C//DTD SVG 1.1//EN" "http://www.w3.org/Graphics/SVG/1.1/DTD/svg11.dtd"><svg class="icon" width="200px" height="200.00px" viewBox="0 0 1024 1024" version="1.1" xmlns="http://www.w3.org/2000/svg"><path d="M677.802667 492.373333V445.866667a33.706667 33.706667 0 0 1 34.133333-33.194667c18.858667 0 34.133333 14.848 34.133333 33.194667v46.592a33.706667 33.706667 0 0 1-34.133333 33.194666 33.706667 33.706667 0 0 1-34.133333-33.194666zM512 881.834667c-171.050667 0-263.296-51.626667-263.296-72.746667v-185.856c65.877333 33.450667 164.906667 50.688 263.296 50.688s197.418667-17.237333 263.296-50.688v185.856c0 21.12-92.245333 72.746667-263.296 72.746667z m0-720.64c173.738667 0 263.296 53.674667 263.296 76.586666 0 22.869333-89.6 76.501333-263.296 76.501334-173.738667 0-263.296-53.632-263.296-76.501334 0-22.912 89.6-76.544 263.296-76.544z m263.296 364.117333c0 21.12-92.245333 72.746667-263.296 72.746667s-263.296-51.626667-263.296-72.746667V338.133333C314.581333 372.437333 413.610667 390.101333 512 390.101333s197.418667-17.664 263.296-51.968v187.136zM853.333333 237.653333C853.333333 137.728 681.642667 85.333333 512 85.333333S170.666667 137.685333 170.666667 237.738667c0 0.853333 0.128 1.621333 0.128 2.474666L170.666667 241.493333v567.552c0 97.536 171.690667 148.565333 341.333333 148.565334s341.333333-51.029333 341.333333-148.565334V241.493333l-0.128-1.28c0-0.853333 0.128-1.664 0.128-2.474666z" fill="#858E8E" /></svg>